<mxfile host="app.diagrams.net" agent="Mozilla/5.0 (Windows NT 10.0; Win64; x64; rv:135.0) Gecko/20100101 Firefox/135.0" version="26.0.16">
  <diagram name="Page-1" id="e7e014a7-5840-1c2e-5031-d8a46d1fe8dd">
    <mxGraphModel dx="1687" dy="878" grid="1" gridSize="10" guides="1" tooltips="1" connect="1" arrows="1" fold="1" page="1" pageScale="1" pageWidth="1169" pageHeight="826" background="none" math="0" shadow="0">
      <root>
        <mxCell id="0" />
        <mxCell id="1" parent="0" />
        <mxCell id="2" value="Event Creation" style="swimlane;whiteSpace=wrap" parent="1" vertex="1">
          <mxGeometry x="170" y="180" width="820" height="1080" as="geometry" />
        </mxCell>
        <mxCell id="5" value="" style="ellipse;shape=startState;fillColor=#000000;strokeColor=#ff0000;" parent="2" vertex="1">
          <mxGeometry x="145" y="52" width="30" height="30" as="geometry" />
        </mxCell>
        <mxCell id="6" value="" style="edgeStyle=elbowEdgeStyle;elbow=horizontal;verticalAlign=bottom;endArrow=open;endSize=6;strokeColor=#FF0000;endFill=1;rounded=0" parent="2" source="5" target="7" edge="1">
          <mxGeometry x="100" y="40" as="geometry">
            <mxPoint x="160" y="122" as="targetPoint" />
          </mxGeometry>
        </mxCell>
        <mxCell id="7" value="User selects&#xa;create new event" style="" parent="2" vertex="1">
          <mxGeometry x="105" y="122" width="110" height="50" as="geometry" />
        </mxCell>
        <mxCell id="8" value="Get event title,&#xa;date, and time" style="" parent="2" vertex="1">
          <mxGeometry x="105" y="232" width="110" height="50" as="geometry" />
        </mxCell>
        <mxCell id="9" value="" style="endArrow=open;strokeColor=#FF0000;endFill=1;rounded=0" parent="2" source="7" target="8" edge="1">
          <mxGeometry relative="1" as="geometry" />
        </mxCell>
        <mxCell id="10" value="Get team visibility&#xa;and editing&#xa;permissoins" style="" parent="2" vertex="1">
          <mxGeometry x="105" y="560" width="110" height="50" as="geometry" />
        </mxCell>
        <mxCell id="11" value="" style="endArrow=open;strokeColor=#FF0000;endFill=1;rounded=0" parent="2" source="5erYSuECB5W-BoO5jXI5-50" target="10" edge="1">
          <mxGeometry relative="1" as="geometry" />
        </mxCell>
        <mxCell id="5erYSuECB5W-BoO5jXI5-54" value="&lt;div&gt;No&lt;/div&gt;" style="edgeLabel;html=1;align=center;verticalAlign=middle;resizable=0;points=[];" vertex="1" connectable="0" parent="11">
          <mxGeometry x="-0.0286" y="-2" relative="1" as="geometry">
            <mxPoint as="offset" />
          </mxGeometry>
        </mxCell>
        <mxCell id="5erYSuECB5W-BoO5jXI5-46" style="rounded=0;orthogonalLoop=1;jettySize=auto;html=1;exitX=1;exitY=0.5;exitDx=0;exitDy=0;entryX=0;entryY=0.5;entryDx=0;entryDy=0;strokeColor=#FF0000;endArrow=open;endFill=0;" edge="1" parent="2" source="5erYSuECB5W-BoO5jXI5-42" target="5erYSuECB5W-BoO5jXI5-45">
          <mxGeometry relative="1" as="geometry" />
        </mxCell>
        <mxCell id="5erYSuECB5W-BoO5jXI5-47" value="Yes" style="edgeLabel;html=1;align=center;verticalAlign=middle;resizable=0;points=[];" vertex="1" connectable="0" parent="5erYSuECB5W-BoO5jXI5-46">
          <mxGeometry x="-0.04" relative="1" as="geometry">
            <mxPoint as="offset" />
          </mxGeometry>
        </mxCell>
        <mxCell id="5erYSuECB5W-BoO5jXI5-42" value="&lt;div&gt;is the event&lt;/div&gt;&lt;div&gt;recurring?&lt;/div&gt;" style="rhombus;whiteSpace=wrap;html=1;" vertex="1" parent="2">
          <mxGeometry x="120" y="297" width="80" height="80" as="geometry" />
        </mxCell>
        <mxCell id="5erYSuECB5W-BoO5jXI5-43" value="" style="endArrow=open;strokeColor=#FF0000;endFill=1;rounded=0" edge="1" parent="2" source="8" target="5erYSuECB5W-BoO5jXI5-42">
          <mxGeometry relative="1" as="geometry">
            <mxPoint x="320" y="410" as="sourcePoint" />
            <mxPoint x="320" y="465" as="targetPoint" />
          </mxGeometry>
        </mxCell>
        <mxCell id="5erYSuECB5W-BoO5jXI5-48" style="edgeStyle=orthogonalEdgeStyle;rounded=0;orthogonalLoop=1;jettySize=auto;html=1;entryX=1;entryY=0.5;entryDx=0;entryDy=0;endArrow=open;endFill=0;strokeColor=#FF0000;" edge="1" parent="2" source="5erYSuECB5W-BoO5jXI5-45" target="5erYSuECB5W-BoO5jXI5-50">
          <mxGeometry relative="1" as="geometry">
            <Array as="points">
              <mxPoint x="300" y="410" />
              <mxPoint x="200" y="410" />
            </Array>
          </mxGeometry>
        </mxCell>
        <mxCell id="5erYSuECB5W-BoO5jXI5-45" value="&lt;div&gt;Get how often&lt;/div&gt;&lt;div&gt;event recurs&lt;/div&gt;" style="html=1;dashed=0;whiteSpace=wrap;" vertex="1" parent="2">
          <mxGeometry x="250" y="312" width="100" height="50" as="geometry" />
        </mxCell>
        <mxCell id="5erYSuECB5W-BoO5jXI5-51" value="" style="endArrow=open;strokeColor=#FF0000;endFill=1;rounded=0" edge="1" parent="2" source="5erYSuECB5W-BoO5jXI5-42" target="5erYSuECB5W-BoO5jXI5-50">
          <mxGeometry relative="1" as="geometry">
            <mxPoint x="330" y="557" as="sourcePoint" />
            <mxPoint x="330" y="694" as="targetPoint" />
          </mxGeometry>
        </mxCell>
        <mxCell id="5erYSuECB5W-BoO5jXI5-52" value="No" style="edgeLabel;html=1;align=center;verticalAlign=middle;resizable=0;points=[];" vertex="1" connectable="0" parent="5erYSuECB5W-BoO5jXI5-51">
          <mxGeometry x="-0.0133" y="-2" relative="1" as="geometry">
            <mxPoint as="offset" />
          </mxGeometry>
        </mxCell>
        <mxCell id="5erYSuECB5W-BoO5jXI5-60" style="edgeStyle=orthogonalEdgeStyle;rounded=0;orthogonalLoop=1;jettySize=auto;html=1;exitX=1;exitY=0.5;exitDx=0;exitDy=0;entryX=0.5;entryY=0;entryDx=0;entryDy=0;endArrow=open;endFill=0;strokeColor=#FF0000;" edge="1" parent="2" source="5erYSuECB5W-BoO5jXI5-50" target="5erYSuECB5W-BoO5jXI5-55">
          <mxGeometry relative="1" as="geometry" />
        </mxCell>
        <mxCell id="5erYSuECB5W-BoO5jXI5-61" value="&lt;div&gt;Yes&lt;/div&gt;" style="edgeLabel;html=1;align=center;verticalAlign=middle;resizable=0;points=[];" vertex="1" connectable="0" parent="5erYSuECB5W-BoO5jXI5-60">
          <mxGeometry x="-0.2342" relative="1" as="geometry">
            <mxPoint as="offset" />
          </mxGeometry>
        </mxCell>
        <mxCell id="5erYSuECB5W-BoO5jXI5-50" value="Any file attachments?" style="rhombus;whiteSpace=wrap;html=1;" vertex="1" parent="2">
          <mxGeometry x="120" y="410" width="80" height="80" as="geometry" />
        </mxCell>
        <mxCell id="5erYSuECB5W-BoO5jXI5-59" style="edgeStyle=orthogonalEdgeStyle;rounded=0;orthogonalLoop=1;jettySize=auto;html=1;exitX=0.5;exitY=1;exitDx=0;exitDy=0;entryX=1;entryY=0.5;entryDx=0;entryDy=0;endArrow=open;endFill=0;strokeColor=#FF0000;" edge="1" parent="2" source="5erYSuECB5W-BoO5jXI5-55" target="10">
          <mxGeometry relative="1" as="geometry" />
        </mxCell>
        <mxCell id="5erYSuECB5W-BoO5jXI5-55" value="Get all attachments" style="html=1;dashed=0;whiteSpace=wrap;" vertex="1" parent="2">
          <mxGeometry x="250" y="490" width="100" height="50" as="geometry" />
        </mxCell>
        <mxCell id="5erYSuECB5W-BoO5jXI5-62" value="" style="endArrow=open;strokeColor=#FF0000;endFill=1;rounded=0;exitX=0.5;exitY=1;exitDx=0;exitDy=0;" edge="1" parent="2" source="10" target="5erYSuECB5W-BoO5jXI5-63">
          <mxGeometry relative="1" as="geometry">
            <mxPoint x="330" y="790" as="sourcePoint" />
            <mxPoint x="330" y="890" as="targetPoint" />
          </mxGeometry>
        </mxCell>
        <mxCell id="5erYSuECB5W-BoO5jXI5-65" style="edgeStyle=orthogonalEdgeStyle;rounded=0;orthogonalLoop=1;jettySize=auto;html=1;exitX=1;exitY=0.5;exitDx=0;exitDy=0;strokeColor=#FF0000;endArrow=open;endFill=0;" edge="1" parent="2" source="5erYSuECB5W-BoO5jXI5-63" target="5erYSuECB5W-BoO5jXI5-64">
          <mxGeometry relative="1" as="geometry" />
        </mxCell>
        <mxCell id="5erYSuECB5W-BoO5jXI5-66" value="&lt;div&gt;yes&lt;/div&gt;" style="edgeLabel;html=1;align=center;verticalAlign=middle;resizable=0;points=[];" vertex="1" connectable="0" parent="5erYSuECB5W-BoO5jXI5-65">
          <mxGeometry x="-0.0185" y="1" relative="1" as="geometry">
            <mxPoint x="-1" y="-1" as="offset" />
          </mxGeometry>
        </mxCell>
        <mxCell id="5erYSuECB5W-BoO5jXI5-63" value="&lt;div&gt;Invite&lt;/div&gt;&lt;div&gt;others?&lt;/div&gt;" style="rhombus;whiteSpace=wrap;html=1;" vertex="1" parent="2">
          <mxGeometry x="120" y="630" width="80" height="80" as="geometry" />
        </mxCell>
        <mxCell id="5erYSuECB5W-BoO5jXI5-71" style="edgeStyle=orthogonalEdgeStyle;rounded=0;orthogonalLoop=1;jettySize=auto;html=1;exitX=0.5;exitY=1;exitDx=0;exitDy=0;entryX=1;entryY=0.5;entryDx=0;entryDy=0;strokeColor=#FF0000;endArrow=open;endFill=0;" edge="1" parent="2" source="5erYSuECB5W-BoO5jXI5-64" target="5erYSuECB5W-BoO5jXI5-70">
          <mxGeometry relative="1" as="geometry" />
        </mxCell>
        <mxCell id="5erYSuECB5W-BoO5jXI5-64" value="&lt;div&gt;Send event invite&lt;/div&gt;&lt;div&gt;to selected users&lt;/div&gt;" style="html=1;dashed=0;whiteSpace=wrap;" vertex="1" parent="2">
          <mxGeometry x="250" y="646" width="100" height="50" as="geometry" />
        </mxCell>
        <mxCell id="38" value="" style="ellipse;shape=endState;fillColor=#000000;strokeColor=#ff0000" parent="2" vertex="1">
          <mxGeometry x="145" y="980" width="30" height="30" as="geometry" />
        </mxCell>
        <mxCell id="39" value="" style="endArrow=open;strokeColor=#FF0000;endFill=1;rounded=0;exitX=0.5;exitY=1;exitDx=0;exitDy=0;" parent="2" source="5erYSuECB5W-BoO5jXI5-73" target="38" edge="1">
          <mxGeometry relative="1" as="geometry" />
        </mxCell>
        <mxCell id="5erYSuECB5W-BoO5jXI5-74" value="No" style="edgeLabel;html=1;align=center;verticalAlign=middle;resizable=0;points=[];" vertex="1" connectable="0" parent="39">
          <mxGeometry x="-0.1941" y="3" relative="1" as="geometry">
            <mxPoint as="offset" />
          </mxGeometry>
        </mxCell>
        <mxCell id="5erYSuECB5W-BoO5jXI5-68" value="" style="endArrow=open;strokeColor=#FF0000;endFill=1;rounded=0;exitX=0.5;exitY=1;exitDx=0;exitDy=0;" edge="1" parent="2" source="5erYSuECB5W-BoO5jXI5-63" target="5erYSuECB5W-BoO5jXI5-70">
          <mxGeometry relative="1" as="geometry">
            <mxPoint x="330" y="890" as="sourcePoint" />
            <mxPoint x="330" y="1050" as="targetPoint" />
          </mxGeometry>
        </mxCell>
        <mxCell id="5erYSuECB5W-BoO5jXI5-69" value="&lt;div&gt;No&lt;/div&gt;" style="edgeLabel;html=1;align=center;verticalAlign=middle;resizable=0;points=[];" vertex="1" connectable="0" parent="5erYSuECB5W-BoO5jXI5-68">
          <mxGeometry x="-0.4588" y="1" relative="1" as="geometry">
            <mxPoint as="offset" />
          </mxGeometry>
        </mxCell>
        <mxCell id="5erYSuECB5W-BoO5jXI5-70" value="Add event to database" style="html=1;dashed=0;whiteSpace=wrap;" vertex="1" parent="2">
          <mxGeometry x="110" y="785" width="100" height="50" as="geometry" />
        </mxCell>
        <mxCell id="5erYSuECB5W-BoO5jXI5-72" value="" style="endArrow=open;strokeColor=#FF0000;endFill=1;rounded=0;exitX=0.5;exitY=1;exitDx=0;exitDy=0;" edge="1" parent="2" source="5erYSuECB5W-BoO5jXI5-70" target="5erYSuECB5W-BoO5jXI5-73">
          <mxGeometry relative="1" as="geometry">
            <mxPoint x="330" y="1015" as="sourcePoint" />
            <mxPoint x="330" y="1120" as="targetPoint" />
          </mxGeometry>
        </mxCell>
        <mxCell id="5erYSuECB5W-BoO5jXI5-75" style="edgeStyle=orthogonalEdgeStyle;rounded=0;orthogonalLoop=1;jettySize=auto;html=1;exitX=0;exitY=0.5;exitDx=0;exitDy=0;entryX=0;entryY=0.5;entryDx=0;entryDy=0;strokeColor=#FF0000;endArrow=open;endFill=0;" edge="1" parent="2" source="5erYSuECB5W-BoO5jXI5-73" target="8">
          <mxGeometry relative="1" as="geometry" />
        </mxCell>
        <mxCell id="5erYSuECB5W-BoO5jXI5-76" value="Yes" style="edgeLabel;html=1;align=center;verticalAlign=middle;resizable=0;points=[];" vertex="1" connectable="0" parent="5erYSuECB5W-BoO5jXI5-75">
          <mxGeometry x="0.0621" y="-2" relative="1" as="geometry">
            <mxPoint as="offset" />
          </mxGeometry>
        </mxCell>
        <mxCell id="5erYSuECB5W-BoO5jXI5-73" value="&lt;div&gt;Edit&lt;/div&gt;&lt;div&gt;Event?&lt;/div&gt;" style="rhombus;whiteSpace=wrap;html=1;" vertex="1" parent="2">
          <mxGeometry x="120" y="860" width="80" height="80" as="geometry" />
        </mxCell>
      </root>
    </mxGraphModel>
  </diagram>
</mxfile>
